 <svg width="15" height="14"  viewBox="0 0 15 14"
                                                    fill="none" xmlns="http://www.w3.org/2000/svg">
                                                    <path
                                                        d="M0.845661 6.9372C0.845239 8.15979 1.16612 9.35341 1.77609 10.4054L0.787109 14L4.48242 13.0354C5.5006 13.5882 6.64685 13.8795 7.81345 13.88H7.81643C11.658 13.88 14.7855 10.7674 14.7871 6.94258C14.7878 5.08877 14.0632 3.34577 12.7473 2.03455C11.4311 0.723324 9.68106 0.000800136 7.81643 0C3.97403 0 0.847151 3.11193 0.845543 6.93698L0.845661 6.9372ZM3.04613 10.2241L2.90819 10.006C2.32815 9.08795 2.02201 8.02689 2.02243 6.9375C2.0237 3.75836 4.62267 1.17172 7.81847 1.17172C9.36608 1.17232 10.8206 1.77296 11.9146 2.86273C13.0086 3.95257 13.6105 5.40136 13.6101 6.94202C13.6087 10.1214 11.0097 12.7082 7.81628 12.7082H7.81402C6.77422 12.7076 5.75448 12.4297 4.86516 11.9044L4.6535 11.7795L2.46054 12.3518L3.04613 10.2241ZM7.81643 13.88H7.8165H7.81643C7.81636 13.88 7.81629 13.88 7.81643 13.88Z"
                                                        fill="#D5E15D" />
                                                    <path fill-rule="evenodd" clip-rule="evenodd"
                                                        d="M6.17482 3.60039C6.02301 3.30931 5.86328 3.30349 5.71889 3.29837C5.60073 3.29403 5.46558 3.29432 5.33059 3.29432C5.19543 3.29432 4.97592 3.33806 4.7903 3.51296C4.60451 3.68787 4.08105 4.11067 4.08105 4.97056C4.08105 5.83054 4.80722 6.66147 4.90839 6.7782C5.00973 6.89471 6.31016 8.7158 8.36952 9.41632C10.0812 9.99853 10.4295 9.88273 10.801 9.85356C11.1725 9.82446 11.9998 9.4309 12.1686 9.02276C12.3375 8.61468 12.3375 8.26487 12.2869 8.19182C12.2362 8.11899 12.1011 8.07524 11.8985 7.9879C11.6958 7.90048 10.6996 7.47761 10.5139 7.41928C10.3281 7.36102 10.1931 7.33193 10.0579 7.50691C9.92284 7.68168 9.53478 8.07524 9.41653 8.19183C9.29836 8.30862 9.18011 8.32321 8.9775 8.23579C8.77481 8.14808 8.12221 7.96371 7.34805 7.36835C6.74568 6.90509 6.33905 6.33298 6.2208 6.15799C6.10263 5.98322 6.20818 5.88855 6.30977 5.80141C6.40081 5.72309 6.51246 5.59734 6.61381 5.49533C6.71491 5.39326 6.74864 5.32042 6.81617 5.20384C6.88379 5.08718 6.84998 4.98511 6.79935 4.89768C6.74864 4.81026 6.35487 3.94595 6.1747 3.60034"
                                                        fill="#D5E15D" />
                                                </svg>