 <svg width="17" height="13" viewBox="0 0 17 13" fill="none"
                                                    xmlns="http://www.w3.org/2000/svg">
                                                    <path fill-rule="evenodd" clip-rule="evenodd"
                                                        d="M1.88261 5.60679C6.17669 3.77797 9.03533 2.56276 10.4708 1.97321C14.5563 0.300794 15.4151 0.0120317 15.9672 0C16.0899 0 16.3598 0.0240637 16.5438 0.168445C16.6911 0.288762 16.7279 0.445175 16.7524 0.565493C16.7769 0.68581 16.8015 0.938476 16.7769 1.13098C16.5561 3.41702 15.5991 8.96365 15.1084 11.5144C14.8998 12.5972 14.4949 12.9582 14.1023 12.9943C13.2435 13.0665 12.5933 12.4408 11.7713 11.9114C10.4708 11.0812 9.74692 10.5639 8.48323 9.74571C7.02324 8.80724 7.96794 8.28987 8.80222 7.44765C9.02306 7.23108 12.7896 3.86219 12.8632 3.5614C12.8755 3.5253 12.8755 3.38092 12.7896 3.30873C12.7037 3.23654 12.581 3.2606 12.4829 3.28467C12.3479 3.30873 10.2867 4.65629 6.27484 7.3153C5.68594 7.71235 5.15838 7.90486 4.6799 7.89283C4.15234 7.88079 3.1463 7.60406 2.38563 7.36343C1.46547 7.07467 0.72934 6.91825 0.790684 6.41292C0.827491 6.14822 1.19555 5.88352 1.88261 5.60679Z"
                                                        fill="#FF84A0" />
                                                </svg>