<svg width="13" height="8" viewBox="0 0 13 8" fill="none" xmlns="http://www.w3.org/2000/svg">
<path d="M0.686523 3.5C0.410381 3.5 0.186523 3.72386 0.186523 4C0.186523 4.27614 0.410381 4.5 0.686523 4.5V3.5ZM12.3684 4.35355C12.5637 4.15829 12.5637 3.84171 12.3684 3.64645L9.18645 0.464466C8.99119 0.269204 8.67461 0.269204 8.47935 0.464466C8.28409 0.659728 8.28409 0.976311 8.47935 1.17157L11.3078 4L8.47935 6.82843C8.28409 7.02369 8.28409 7.34027 8.47935 7.53553C8.67461 7.7308 8.99119 7.7308 9.18645 7.53553L12.3684 4.35355ZM0.686523 4.5H12.0149V3.5H0.686523V4.5Z" fill="#26364B"/>
</svg>
