<svg width="16" height="15" viewBox="0 0 16 15" fill="none" xmlns="http://www.w3.org/2000/svg">
<path d="M13 14C13.5523 14 14 13.5523 14 13C14 12.4477 13.5523 12 13 12C12.4477 12 12 12.4477 12 13C12 13.5523 12.4477 14 13 14Z" fill="#269BC7" stroke="white" stroke-width="1.5" stroke-linecap="round" stroke-linejoin="round"/>
<path d="M6 14C6.55227 14 7 13.5523 7 13C7 12.4477 6.55227 12 6 12C5.44771 12 5 12.4477 5 13C5 13.5523 5.44771 14 6 14Z" fill="#269BC7" stroke="white" stroke-width="1.5" stroke-linecap="round" stroke-linejoin="round"/>
<path d="M3.1 2.23077C2.98333 1.82051 2.4 1 1 1M3.1 2.23077H15L13.6 9H4.5L3.1 2.23077Z" stroke="white" stroke-width="1.5" stroke-linecap="round" stroke-linejoin="round"/>
<path d="M13 9H4.82857H3.71648C2.59492 9 2 9.5859 2 10.5C2 11.4141 2.59492 12 3.71648 12H12.6857" stroke="white" stroke-width="1.5" stroke-linecap="round" stroke-linejoin="round"/>
</svg>
