<svg width="22" height="21" viewBox="0 0 22 21" fill="none" xmlns="http://www.w3.org/2000/svg">
<path d="M11 1.3125C7.37709 1.3125 4.4375 3.95842 4.4375 7.21875C4.4375 12.4688 11 19.6875 11 19.6875C11 19.6875 17.5625 12.4688 17.5625 7.21875C17.5625 3.95842 14.6229 1.3125 11 1.3125ZM11 10.5C10.4808 10.5 9.97331 10.346 9.54163 10.0576C9.10995 9.76917 8.7735 9.3592 8.57482 8.87954C8.37614 8.39989 8.32415 7.87209 8.42544 7.36289C8.52673 6.85369 8.77673 6.38596 9.14385 6.01884C9.51096 5.65173 9.97869 5.40172 10.4879 5.30044C10.9971 5.19915 11.5249 5.25114 12.0045 5.44982C12.4842 5.6485 12.8942 5.98495 13.1826 6.41663C13.471 6.84831 13.625 7.35582 13.625 7.875C13.6242 8.57096 13.3474 9.2382 12.8553 9.73032C12.3632 10.2224 11.696 10.4992 11 10.5Z" fill="#7C8795" stroke="#7C8795" stroke-width="1.5"/>
</svg>
