 <svg width="11" height="11" viewBox="0 0 11 11" fill="white"
                                xmlns="http://www.w3.org/2000/svg">
                                <g>
                                    <path
                                        d="M0.0460046 5.45066C0.0456731 6.41126 0.297798 7.34911 0.777056 8.17566L0 11L2.90346 10.2421C3.70346 10.6764 4.60408 10.9053 5.5207 10.9057H5.52304C8.54143 10.9057 10.9987 8.46012 11 5.45488C11.0005 3.99832 10.4312 2.62882 9.39726 1.59857C8.36312 0.568326 6.98811 0.000628678 5.52304 0C2.50401 0 0.0471755 2.44509 0.0459125 5.45048L0.0460046 5.45066ZM1.77495 8.03325L1.66657 7.86188C1.21082 7.14053 0.970279 6.30684 0.97061 5.45089C0.971605 2.953 3.01366 0.920637 5.52464 0.920637C6.74062 0.921109 7.88344 1.39304 8.74306 2.24929C9.60259 3.10559 10.0756 4.24393 10.0752 5.45445C10.0741 7.9525 8.03201 9.98501 5.52292 9.98501H5.52114C4.70416 9.98454 3.90293 9.76622 3.20418 9.35343L3.03788 9.25529L1.31484 9.70502L1.77495 8.03325ZM5.52304 10.9057H5.52309H5.52304C5.52298 10.9057 5.52292 10.9057 5.52304 10.9057Z" />
                                    <path fill-rule="evenodd" clip-rule="evenodd"
                                        d="M4.23299 2.82838C4.11371 2.59968 3.98821 2.5951 3.87476 2.59108C3.78192 2.58767 3.67573 2.58789 3.56967 2.58789C3.46347 2.58789 3.291 2.62226 3.14515 2.75969C2.99918 2.89712 2.58789 3.22932 2.58789 3.90495C2.58789 4.58064 3.15845 5.23352 3.23794 5.32523C3.31757 5.41677 4.33933 6.84763 5.9574 7.39804C7.30227 7.85549 7.57594 7.76451 7.86784 7.74158C8.15973 7.71873 8.80978 7.4095 8.9424 7.08881C9.07509 6.76818 9.07509 6.49333 9.03531 6.43594C8.99552 6.37871 8.88933 6.34433 8.73014 6.27571C8.57088 6.20702 7.7882 5.87477 7.6423 5.82894C7.49632 5.78316 7.39019 5.7603 7.28399 5.89779C7.17787 6.03511 6.87296 6.34434 6.78005 6.43594C6.6872 6.52771 6.59429 6.53917 6.4351 6.47048C6.27584 6.40157 5.76308 6.2567 5.15482 5.78892C4.68152 5.42493 4.36203 4.97542 4.26912 4.83792C4.17627 4.70061 4.2592 4.62622 4.33903 4.55775C4.41056 4.49622 4.49828 4.39741 4.57791 4.31726C4.65735 4.23707 4.68385 4.17984 4.73691 4.08823C4.79004 3.99657 4.76348 3.91637 4.72369 3.84768C4.68385 3.779 4.37446 3.09989 4.2329 2.82834" />
                                </g>
                            </svg>