<svg width="20" height="20" viewBox="0 0 20 20" fill="none" xmlns="http://www.w3.org/2000/svg">
<path d="M0.0836448 9.91028C0.083042 11.6568 0.541451 13.362 1.41283 14.8648L0 20L5.27902 18.622C6.73356 19.4117 8.37105 19.8278 10.0376 19.8285H10.0419C15.5299 19.8285 19.9977 15.382 20 9.91797C20.0009 7.26966 18.9659 4.77967 17.0859 2.9065C15.2057 1.03332 12.7056 0.00114305 10.0419 0C4.55275 0 0.0857736 4.44561 0.0834772 9.90997L0.0836448 9.91028ZM3.22718 14.6059L3.03012 14.2943C2.20148 12.9828 1.76414 11.467 1.76475 9.91072C1.76655 5.36909 5.47938 1.67389 10.0448 1.67389C12.2557 1.67474 14.3335 2.5328 15.8965 4.08961C17.4593 5.64653 18.3192 7.71623 18.3186 9.91717C18.3166 14.4591 14.6037 18.1546 10.0417 18.1546H10.0384C8.55302 18.1537 7.09624 17.7568 5.82579 17.0062L5.52341 16.8278L2.39062 17.6455L3.22718 14.6059ZM10.0419 19.8285H10.042H10.0419C10.0418 19.8285 10.0417 19.8285 10.0419 19.8285Z" fill="#26364B" fill-opacity="0.58"/>
<path fill-rule="evenodd" clip-rule="evenodd" d="M7.69715 5.14355C7.48028 4.72773 7.25209 4.71941 7.04582 4.71209C6.87701 4.7059 6.68395 4.7063 6.4911 4.7063C6.29802 4.7063 5.98443 4.7688 5.71926 5.01866C5.45385 5.26853 4.70605 5.87253 4.70605 7.10095C4.70605 8.32948 5.74344 9.51653 5.88796 9.68328C6.03274 9.84972 7.8905 12.4513 10.8324 13.452C13.2777 14.2838 13.7752 14.1183 14.306 14.0767C14.8367 14.0351 16.0186 13.4729 16.2597 12.8898C16.501 12.3068 16.501 11.8071 16.4286 11.7027C16.3563 11.5987 16.1632 11.5362 15.8738 11.4114C15.5842 11.2865 14.1612 10.6824 13.8959 10.5991C13.6305 10.5159 13.4375 10.4743 13.2444 10.7243C13.0515 10.974 12.4971 11.5362 12.3282 11.7028C12.1593 11.8696 11.9904 11.8904 11.701 11.7655C11.4114 11.6403 10.4791 11.3769 9.3732 10.5264C8.51266 9.86455 7.93176 9.04726 7.76283 8.79727C7.59402 8.5476 7.7448 8.41236 7.88994 8.28786C8.01999 8.17599 8.1795 7.99633 8.32428 7.85061C8.4687 7.7048 8.51688 7.60074 8.61337 7.43419C8.70996 7.26754 8.66167 7.12172 8.58933 6.99683C8.51688 6.87194 7.95437 5.63721 7.69698 5.14348" fill="#26364B" fill-opacity="0.58"/>
</svg>
