<svg width="12" height="10" viewBox="0 0 12 10" fill="white" xmlns="http://www.w3.org/2000/svg">
<path  fill-rule="evenodd" clip-rule="evenodd" d="M0.821624 4.31292C4.04219 2.90613 6.18616 1.97136 7.26275 1.51785C10.3269 0.23138 10.971 0.00925519 11.3851 0C11.4771 0 11.6795 0.0185105 11.8175 0.129573C11.928 0.222125 11.9556 0.342442 11.974 0.434994C11.9924 0.527546 12.0108 0.721905 11.9924 0.869988C11.8267 2.62847 11.109 6.89511 10.741 8.85721C10.5845 9.69018 10.2809 9.96784 9.98643 9.9956C9.34231 10.0511 8.85463 9.56986 8.23812 9.16264C7.26275 8.52403 6.71986 8.12605 5.77209 7.4967C4.6771 6.7748 5.38562 6.37683 6.01133 5.72896C6.17696 5.56237 9.00185 2.97092 9.05707 2.73954C9.06627 2.71177 9.06627 2.60071 9.00185 2.54518C8.93744 2.48965 8.84543 2.50816 8.77181 2.52667C8.6706 2.54518 7.12473 3.58176 4.1158 5.62715C3.67412 5.93258 3.27845 6.08066 2.91959 6.0714C2.52392 6.06215 1.76939 5.84928 1.19889 5.66417C0.50877 5.44205 -0.043327 5.32173 0.00268109 4.93302C0.0302859 4.7294 0.306334 4.52579 0.821624 4.31292Z" fill="white"/>
</svg>
