<svg width="17" height="14" viewBox="0 0 17 14" fill="none" xmlns="http://www.w3.org/2000/svg">
<path fill-rule="evenodd" clip-rule="evenodd" d="M1.16397 6.03809C5.72643 4.06858 8.76373 2.7599 10.2889 2.12499C14.6298 0.323932 15.5422 0.0129573 16.1289 0C16.2592 0 16.546 0.0259147 16.7415 0.181402C16.898 0.310975 16.9371 0.479419 16.9631 0.608992C16.9892 0.738565 17.0153 1.01067 16.9892 1.21798C16.7546 3.67986 15.7378 9.65316 15.2164 12.4001C14.9948 13.5663 14.5646 13.955 14.1474 13.9938C13.2349 14.0716 12.5441 13.3978 11.6707 12.8277C10.2889 11.9336 9.5198 11.3765 8.17713 10.4954C6.62589 9.48472 7.62963 8.92756 8.51605 8.02055C8.75069 7.78732 12.7526 4.15928 12.8308 3.83535C12.8439 3.79648 12.8439 3.64099 12.7526 3.56325C12.6614 3.4855 12.531 3.51142 12.4267 3.53733C12.2833 3.56325 10.0934 5.01446 5.83072 7.87802C5.20501 8.30561 4.64448 8.51292 4.13609 8.49997C3.57556 8.48701 2.50664 8.18899 1.69843 7.92984C0.720757 7.61887 -0.0613799 7.45043 0.0037982 6.90622C0.042905 6.62116 0.433973 6.3361 1.16397 6.03809Z" fill="#26364B" fill-opacity="0.58"/>
</svg>
