<svg width="116" height="116" viewBox="0 0 116 116" fill="none" xmlns="http://www.w3.org/2000/svg">
<g id="3&#208;&#178;&#208;&#190;&#208;&#189;&#208;&#190;&#209;&#135;&#208;&#181;&#208;&#186;">
<path id="Ellipse 95" d="M69 94.5C69 97.2848 67.8938 99.9555 65.9246 101.925C63.9555 103.894 61.2848 105 58.5 105C55.7152 105 53.0445 103.894 51.0754 101.925C49.1062 99.9555 48 97.2848 48 94.5L58.5 94.5H69Z" fill="url(#paint0_linear_6_1878)"/>
<path id="icon/alert/notification_important_24px" d="M98.0696 87.1935C91.035 81.0335 87.0005 72.1378 87.0005 62.7873V48.5006C87.0005 32.6718 80.3108 24.8548 66.2315 19.3238C65.5833 19.0692 64.908 18.8788 64.2249 18.7433C63.4106 18.5819 62.5815 18.5007 61.7513 18.5008C60.5499 18.5009 61.2443 18.5006 58.0005 18.5006C54.4541 18.5006 56.3964 18.5004 54.4766 18.5005C53.8289 18.5005 53.1793 18.5527 52.54 18.6565C51.3542 18.849 50.1999 19.2132 49.1321 19.7635C37.6735 25.6689 29.0005 33.0297 29.0005 48.5006C29.0005 53.7217 29.0005 58.5911 29.0005 62.7927C29.0005 72.1424 24.9666 81.0335 17.933 87.1935C14.888 90.2385 17.0146 95.4585 21.3163 95.4585H94.638C98.988 95.4585 101.115 90.2385 98.0696 87.1935Z" fill="url(#paint1_linear_6_1878)"/>
<path id="Ellipse 97" d="M86 44C86 36.5739 83.05 29.452 77.799 24.201C72.548 18.95 65.4261 16 58 16C50.5739 16 43.452 18.95 38.201 24.201C32.95 29.452 30 36.5739 30 44L58 44H86Z" fill="url(#paint2_linear_6_1878)"/>
<circle id="Ellipse 96" cx="84.5" cy="22.5" r="18.5" fill="#FF84A0" stroke="#F2F1FE" stroke-width="6"/>
</g>
<defs>
<linearGradient id="paint0_linear_6_1878" x1="48.5" y1="97" x2="69.5" y2="100.5" gradientUnits="userSpaceOnUse">
<stop stop-color="#FF9B3B"/>
<stop offset="1" stop-color="#FF753A"/>
</linearGradient>
<linearGradient id="paint1_linear_6_1878" x1="27.5005" y1="44.1304" x2="81.16" y2="99.843" gradientUnits="userSpaceOnUse">
<stop stop-color="#FDEC57"/>
<stop offset="1" stop-color="#FF993A"/>
</linearGradient>
<linearGradient id="paint2_linear_6_1878" x1="31.0769" y1="31.0769" x2="78" y2="46" gradientUnits="userSpaceOnUse">
<stop offset="0.091639" stop-color="#FDEC57"/>
<stop offset="1" stop-color="#FEC249"/>
</linearGradient>
</defs>
</svg>
