<svg width="49" height="49" viewBox="0 0 49 49" fill="none" xmlns="http://www.w3.org/2000/svg">
<circle cx="24.5" cy="24.5" r="24.5" fill="white"/>
<path d="M31.0177 27.7235L28.901 27.4818C28.3927 27.4235 27.8927 27.5985 27.5344 27.9568L26.001 29.4901C23.6427 28.2901 21.7094 26.3651 20.5094 23.9985L22.051 22.4568C22.4094 22.0985 22.5844 21.5985 22.526 21.0901L22.2844 18.9901C22.1844 18.1485 21.476 17.5151 20.626 17.5151H19.1844C18.2427 17.5151 17.4594 18.2985 17.5177 19.2401C17.9594 26.3568 23.651 32.0401 30.7594 32.4818C31.701 32.5401 32.4844 31.7568 32.4844 30.8151V29.3735C32.4927 28.5318 31.8594 27.8235 31.0177 27.7235Z" fill="#FF84A0" stroke="#FF84A0"/>
</svg>
