<svg width="57" height="17" viewBox="0 0 57 17" fill="none" xmlns="http://www.w3.org/2000/svg">
<path d="M48.3894 0H49.982C50.3928 0.0454407 50.8036 0.0836088 51.2126 0.139955C52.0349 0.22728 52.8409 0.423598 53.608 0.723412C54.5116 1.09948 55.3802 1.55009 56.2042 2.07027C56.3918 2.19024 56.5794 2.31565 56.7801 2.45016L54.0639 5.8782C53.9795 5.84367 53.9213 5.82185 53.8669 5.79459C53.1815 5.46815 52.4724 5.19054 51.7453 4.96394C50.6316 4.59275 49.4368 4.51189 48.2806 4.72946C48.0296 4.77947 47.7908 4.87573 47.5772 5.01301C47.4776 5.07419 47.3956 5.15875 47.3388 5.25885C47.282 5.35894 47.2522 5.47133 47.2522 5.58556C47.2522 5.6998 47.282 5.81218 47.3388 5.91228C47.3956 6.01237 47.4776 6.09694 47.5772 6.15811C47.7513 6.27187 47.9451 6.35437 48.1493 6.40168C48.8546 6.56708 49.5618 6.7234 50.2728 6.8579C51.4328 7.05357 52.5774 7.32749 53.6981 7.67765C54.6517 7.9746 55.4978 8.52958 56.1367 9.27716C56.5345 9.74117 56.8065 10.294 56.928 10.8857C57.0496 11.4773 57.0168 12.089 56.8326 12.6652C56.3411 14.352 55.21 15.5534 53.5461 16.2605C52.4806 16.7149 51.3439 16.8639 50.1959 16.9439C48.9644 17.0312 47.7275 17.0166 46.4986 16.9003C45.7334 16.8495 44.9775 16.7085 44.2475 16.4804C43.3388 16.1792 42.4704 15.774 41.6607 15.2735C41.6129 15.2485 41.5634 15.2266 41.5126 15.2081C41.4675 15.2408 41.43 15.2662 41.3944 15.2953C40.9296 15.6533 40.4074 15.9351 39.8487 16.1296C38.6987 16.5275 37.485 16.7245 36.2639 16.7113C32.9831 16.7294 29.6985 16.7203 26.4195 16.7203C26.3763 16.7203 26.3313 16.7203 26.2657 16.7113V7.90668C26.2212 7.94182 26.1891 7.98945 26.1737 8.043C25.7235 9.36078 25.2677 10.6767 24.8269 11.9963C24.3467 13.4341 23.8796 14.8755 23.405 16.3168C23.3618 16.4513 23.3112 16.584 23.268 16.7113H17.1453L14.444 7.75763C14.4221 7.79267 14.4027 7.82911 14.3859 7.86669C14.1739 8.47923 13.9507 9.08995 13.7519 9.70613C13.1309 11.6237 12.5194 13.545 11.9041 15.4662C11.771 15.8824 11.634 16.2987 11.5008 16.7076H5.36305C3.6354 11.2547 1.72578 5.87457 0 0.418052H5.86391C5.88454 0.472581 5.90517 0.521658 5.92018 0.572551C6.14904 1.2996 6.37226 2.02665 6.60487 2.74098C7.19513 4.57678 7.78915 6.41258 8.38692 8.24839C8.51636 8.6519 8.64392 9.05723 8.77335 9.46074C8.78836 9.50619 8.81087 9.54981 8.84651 9.6316C9.88573 6.51619 10.9099 3.44077 11.9323 0.374431H17.1847C17.2072 0.428959 17.2278 0.476217 17.2447 0.527111C17.995 2.87185 18.7391 5.21658 19.477 7.56132C19.6852 8.2193 19.8859 8.8791 20.0922 9.53708C20.1091 9.59343 20.141 9.64796 20.1841 9.74793L23.2737 0.365339H23.5738C27.4099 0.365339 31.246 0.365339 35.0803 0.365339C35.7668 0.365339 36.4553 0.398058 37.1437 0.45804C38.0727 0.524029 38.9791 0.766762 39.8112 1.17237C40.6627 1.59815 41.3583 2.26769 41.8033 3.08997C41.8352 3.14449 41.8615 3.20266 41.8877 3.25355C42.0753 2.99181 42.2516 2.73189 42.4505 2.48469C43.0892 1.61463 43.9902 0.957475 45.0298 0.603448C45.8283 0.341315 46.6554 0.169325 47.4946 0.0908813L48.3894 0ZM42.9645 8.86456C42.933 8.91918 42.9231 8.98302 42.9365 9.0442C42.95 9.10538 42.9859 9.15975 43.0376 9.19719C43.2402 9.39349 43.4297 9.60434 43.6473 9.7861C43.8081 9.92857 43.9205 10.1149 43.9699 10.3205C44.018 10.4948 44.0775 10.666 44.1481 10.8331C44.57 11.749 45.3469 12.4672 46.311 12.8324C46.9514 13.0742 47.631 13.2041 48.3181 13.216C49.4965 13.2892 50.6792 13.1663 51.8147 12.8524C52.1899 12.7416 52.5651 12.6107 52.9402 12.4889C52.4943 12.3194 52.0397 12.172 51.5784 12.0472C50.8813 11.8708 50.2551 11.4952 49.7813 10.9694C49.5374 10.6967 49.303 10.4241 49.0741 10.1296C48.7689 9.74008 48.3862 9.41376 47.9486 9.16992C47.3033 8.8064 46.598 8.72097 45.8758 8.70824C45.3419 8.67945 44.816 8.84328 44.3995 9.1681C44.2457 9.2917 44.2288 9.39531 44.3714 9.53163C44.7146 9.84608 45.0504 10.1714 45.4218 10.4532C46.2341 11.0657 47.1945 11.3747 48.1718 11.6383C48.3876 11.6964 48.6033 11.76 48.8171 11.82C48.7995 11.8324 48.7794 11.8413 48.7581 11.846C48.7368 11.8506 48.7148 11.8511 48.6933 11.8473C48.2037 11.7655 47.7104 11.6928 47.2245 11.5928C46.2499 11.4027 45.3525 10.9446 44.6396 10.2732C44.2213 9.8788 43.8086 9.48074 43.3903 9.08631C43.3402 9.02157 43.2762 8.96818 43.2026 8.92988C43.1291 8.89159 43.0478 8.86929 42.9645 8.86456ZM31.8726 12.847C31.9326 12.847 31.9701 12.8579 32.0095 12.8579C33.1481 12.8579 34.2868 12.8579 35.4254 12.8579C35.675 12.8521 35.9232 12.8216 36.1664 12.767C36.4404 12.7213 36.6906 12.5877 36.877 12.3879C37.0633 12.188 37.1751 11.9332 37.1943 11.6645C37.2136 11.3957 37.1392 11.1285 36.9831 10.9056C36.827 10.6827 36.5982 10.517 36.3333 10.435C35.9977 10.3387 35.6497 10.2892 35.2997 10.2878C34.2474 10.2696 33.1932 10.2878 32.1408 10.2878H31.8726V12.847ZM31.8726 6.61434C31.9307 6.61434 31.9757 6.62707 32.0208 6.62707C32.8949 6.62707 33.7709 6.63797 34.6469 6.62707C34.9353 6.6223 35.2214 6.57762 35.4967 6.49438C35.9056 6.36714 36.2658 6.16357 36.354 5.69099C36.4778 5.03483 36.2283 4.60041 35.583 4.35321C35.2361 4.23539 34.8699 4.17995 34.5025 4.18963C33.6996 4.18963 32.8949 4.18963 32.0902 4.18963C32.0208 4.18963 31.9532 4.18963 31.8744 4.20235L31.8726 6.61434Z" fill="white"/>
</svg>
