<svg width="43" height="43" viewBox="0 0 43 43" fill="none" xmlns="http://www.w3.org/2000/svg">
<path d="M18.9474 2.9765C20.2894 1.41165 22.7106 1.41165 24.0526 2.9765C24.988 4.0672 26.513 4.44308 27.8481 3.912C29.7636 3.15005 31.9075 4.27525 32.3685 6.2845C32.6899 7.68496 33.8655 8.7265 35.2945 8.87671C37.3447 9.09221 38.7201 11.0848 38.1946 13.0782C37.8283 14.4676 38.3853 15.9362 39.5808 16.7333C41.296 17.8768 41.5878 20.2804 40.1961 21.8012C39.2261 22.8612 39.0368 24.4205 39.7249 25.6818C40.7122 27.4915 39.8536 29.7554 37.9146 30.4552C36.5631 30.9431 35.6709 32.2357 35.694 33.6724C35.7272 35.7336 33.9149 37.3391 31.8727 37.0577C30.4493 36.8616 29.0585 37.5915 28.4114 38.8744C27.4829 40.7149 25.132 41.2943 23.4545 40.0961C22.2853 39.261 20.7147 39.261 19.5455 40.0961C17.868 41.2943 15.5171 40.7149 14.5886 38.8744C13.9415 37.5915 12.5507 36.8616 11.1273 37.0577C9.08511 37.3391 7.27281 35.7336 7.306 33.6724C7.32914 32.2357 6.43689 30.9431 5.08539 30.4552C3.14635 29.7554 2.28778 27.4915 3.27506 25.6818C3.9632 24.4205 3.77388 22.8612 2.80387 21.8012C1.41219 20.2804 1.70404 17.8768 3.41924 16.7333C4.61473 15.9362 5.1717 14.4676 4.80542 13.0782C4.27991 11.0848 5.65532 9.09221 7.70549 8.87671C9.13447 8.7265 10.3101 7.68496 10.6315 6.2845C11.0925 4.27525 13.2364 3.15005 15.1519 3.912C16.487 4.44308 18.012 4.0672 18.9474 2.9765Z" fill="#6076DF"/>
<path d="M16.89 26L23.582 16.2H25.948L19.256 26H16.89ZM17.828 21.52C17.3333 21.52 16.89 21.4173 16.498 21.212C16.106 20.9973 15.7933 20.6847 15.56 20.274C15.336 19.8633 15.224 19.3687 15.224 18.79C15.224 18.2113 15.336 17.7213 15.56 17.32C15.7933 16.9093 16.106 16.5967 16.498 16.382C16.89 16.1673 17.3333 16.06 17.828 16.06C18.3227 16.06 18.766 16.1673 19.158 16.382C19.55 16.5967 19.858 16.9093 20.082 17.32C20.3153 17.7213 20.432 18.2113 20.432 18.79C20.432 19.3687 20.3153 19.8633 20.082 20.274C19.858 20.6847 19.55 20.9973 19.158 21.212C18.766 21.4173 18.3227 21.52 17.828 21.52ZM17.828 20.008C17.9867 20.008 18.1267 19.924 18.248 19.756C18.3787 19.5787 18.444 19.2567 18.444 18.79C18.444 18.3233 18.3787 18.006 18.248 17.838C18.1267 17.6607 17.9867 17.572 17.828 17.572C17.6787 17.572 17.5387 17.6607 17.408 17.838C17.2773 18.006 17.212 18.3233 17.212 18.79C17.212 19.2567 17.2773 19.5787 17.408 19.756C17.5387 19.924 17.6787 20.008 17.828 20.008ZM25.01 26.14C24.5153 26.14 24.072 26.0373 23.68 25.832C23.288 25.6173 22.9753 25.3047 22.742 24.894C22.518 24.4833 22.406 23.9887 22.406 23.41C22.406 22.8313 22.518 22.3413 22.742 21.94C22.9753 21.5293 23.288 21.2167 23.68 21.002C24.072 20.7873 24.5153 20.68 25.01 20.68C25.5047 20.68 25.948 20.7873 26.34 21.002C26.732 21.2167 27.04 21.5293 27.264 21.94C27.4973 22.3413 27.614 22.8313 27.614 23.41C27.614 23.9887 27.4973 24.4833 27.264 24.894C27.04 25.3047 26.732 25.6173 26.34 25.832C25.948 26.0373 25.5047 26.14 25.01 26.14ZM25.01 24.628C25.1687 24.628 25.3087 24.544 25.43 24.376C25.5607 24.1987 25.626 23.8767 25.626 23.41C25.626 22.9433 25.5607 22.626 25.43 22.458C25.3087 22.2807 25.1687 22.192 25.01 22.192C24.8607 22.192 24.7207 22.2807 24.59 22.458C24.4593 22.626 24.394 22.9433 24.394 23.41C24.394 23.8767 24.4593 24.1987 24.59 24.376C24.7207 24.544 24.8607 24.628 25.01 24.628Z" fill="white"/>
</svg>
