<svg width="30" height="24" viewBox="0 0 30 24" fill="none" xmlns="http://www.w3.org/2000/svg">
<path d="M24.8813 9.51325C25.3053 9.43652 26.1677 9.46409 26.58 9.53958C26.9923 9.61508 27.3747 9.76496 27.7013 9.97914C28.028 10.1933 28.2914 10.4668 28.4739 10.7813C28.6563 11.0958 28.7536 11.4439 28.7591 11.8023C28.7646 12.1606 28.6783 12.5209 28.5059 12.8589C28.3335 13.1969 28.0791 13.5048 27.7597 13.7619C27.4403 14.0189 27.0634 14.2192 26.6543 14.3492C26.2452 14.4792 25.3813 14.7382 24.9558 14.7178" stroke="black"/>
<path d="M4.40802 10.2481C4.03038 10.217 3.27709 10.3241 2.922 10.4331C2.5669 10.542 2.24406 10.7172 1.97517 10.9467C1.70629 11.1762 1.4976 11.4548 1.36315 11.7638C1.22869 12.0727 1.17158 12.4048 1.19566 12.7377C1.21973 13.0707 1.32444 13.3967 1.50274 13.6939C1.68103 13.9912 1.92878 14.2527 2.22932 14.461C2.52986 14.6692 2.87623 14.8194 3.24513 14.9013C3.61403 14.9832 4.39168 15.1419 4.7628 15.0828" stroke="black"/>
<path d="M22.381 4.5754C21.4077 3.5925 20.2499 2.8116 18.9739 2.27754C17.6979 1.74349 16.329 1.46682 14.9458 1.46341C13.5625 1.46001 12.1923 1.72994 10.9137 2.25771C9.6351 2.78547 8.47339 3.56067 7.4953 4.53876C6.51721 5.51685 5.74202 6.67856 5.21425 7.95715C4.68648 9.23573 4.41655 10.606 4.41995 11.9892C4.42336 13.3725 4.70003 14.7414 5.23409 16.0173C5.76814 17.2933 6.54905 18.4512 7.53194 19.4245C8.5052 20.4074 9.66308 21.1883 10.9391 21.7223C12.215 22.2564 13.584 22.533 14.9672 22.5364C16.3504 22.5399 17.7207 22.2699 18.9993 21.7422C20.2778 21.2144 21.4396 20.4392 22.4176 19.4611C23.3957 18.483 24.1709 17.3213 24.6987 16.0427C25.2265 14.7641 25.4964 13.3939 25.493 12.0106C25.4896 10.6274 25.2129 9.25849 24.6789 7.98251C24.1448 6.70654 23.3639 5.54866 22.381 4.5754V4.5754ZM11.5815 9.74993C11.804 9.74993 12.0215 9.81591 12.2065 9.93953C12.3915 10.0631 12.5357 10.2388 12.6208 10.4444C12.706 10.65 12.7283 10.8762 12.6849 11.0944C12.6414 11.3126 12.5343 11.5131 12.377 11.6704C12.2196 11.8278 12.0192 11.9349 11.8009 11.9783C11.5827 12.0217 11.3565 11.9994 11.151 11.9143C10.9454 11.8291 10.7697 11.685 10.6461 11.4999C10.5225 11.3149 10.4565 11.0974 10.4565 10.8749C10.4561 10.7271 10.4849 10.5806 10.5414 10.444C10.5978 10.3073 10.6806 10.1831 10.7851 10.0786C10.8897 9.97407 11.0139 9.89121 11.1505 9.83481C11.2872 9.7784 11.4336 9.74956 11.5815 9.74993V9.74993ZM19.441 14.7267C18.8785 16.6157 17.0879 17.9999 14.9588 17.9999C12.8298 17.9999 11.0391 16.6157 10.4719 14.7267C10.4561 14.6704 10.4536 14.6112 10.4647 14.5538C10.4757 14.4964 10.5001 14.4424 10.5357 14.3961C10.5714 14.3498 10.6174 14.3125 10.67 14.2871C10.7227 14.2617 10.7805 14.249 10.839 14.2499H19.0744C19.1328 14.2491 19.1906 14.2618 19.2432 14.2872C19.2958 14.3127 19.3418 14.35 19.3774 14.3963C19.413 14.4426 19.4373 14.4966 19.4483 14.5539C19.4594 14.6113 19.4569 14.6704 19.441 14.7267ZM18.3315 11.9999C18.109 11.9999 17.8915 11.9339 17.7065 11.8103C17.5215 11.6867 17.3773 11.511 17.2921 11.3054C17.207 11.0999 17.1847 10.8737 17.2281 10.6555C17.2715 10.4372 17.3786 10.2368 17.536 10.0794C17.6933 9.9221 17.8938 9.81495 18.112 9.77155C18.3302 9.72814 18.5564 9.75042 18.762 9.83556C18.9676 9.92071 19.1433 10.0649 19.2669 10.2499C19.3905 10.4349 19.4565 10.6524 19.4565 10.8749C19.4568 11.0228 19.428 11.1692 19.3716 11.3059C19.3152 11.4425 19.2323 11.5667 19.1278 11.6713C19.0233 11.7758 18.8991 11.8586 18.7624 11.915C18.6258 11.9715 18.4793 12.0003 18.3315 11.9999V11.9999Z" stroke="black"/>
</svg>
