<svg width="29" height="32" viewBox="0 0 29 32" fill="none" xmlns="http://www.w3.org/2000/svg">
<path d="M0.75 19V25.6C0.75 26.0971 1.15294 26.5 1.65 26.5H9.75" stroke="black" stroke-width="1.5" stroke-linecap="round" stroke-linejoin="round"/>
<path d="M23.25 19V25.6C23.25 26.0971 22.8471 26.5 22.35 26.5H15.75" stroke="black" stroke-width="1.5" stroke-linecap="round" stroke-linejoin="round"/>
<path d="M15.75 5.5H22.35C22.8471 5.5 23.25 5.90294 23.25 6.4V13" stroke="black" stroke-width="1.5" stroke-linecap="round" stroke-linejoin="round"/>
<path d="M0.75 13V6.4C0.75 5.90294 1.15294 5.5 1.65 5.5H9.75" stroke="black" stroke-width="1.5" stroke-linecap="round" stroke-linejoin="round"/>
<path d="M15.75 26.5V28C15.75 29.6569 14.4069 31 12.75 31C11.0931 31 9.75 29.6569 9.75 28V26.5" stroke="black" stroke-width="1.5" stroke-linecap="round" stroke-linejoin="round"/>
<path d="M0.75 13H2.25C3.90686 13 5.25 14.3431 5.25 16C5.25 17.6569 3.90686 19 2.25 19H0.75" stroke="black" stroke-width="1.5" stroke-linecap="round" stroke-linejoin="round"/>
<path d="M23.25 13H24.75C26.4069 13 27.75 14.3431 27.75 16C27.75 17.6569 26.4069 19 24.75 19H23.25" stroke="black" stroke-width="1.5" stroke-linecap="round" stroke-linejoin="round"/>
<path d="M15.75 5.5V4C15.75 2.34314 14.4069 1 12.75 1C11.0931 1 9.75 2.34314 9.75 4V5.5" stroke="black" stroke-width="1.5" stroke-linecap="round" stroke-linejoin="round"/>
</svg>
