<svg width="30" height="30" viewBox="0 0 30 30" fill="none" xmlns="http://www.w3.org/2000/svg">
<path d="M22.5 15C22.5 19.1421 19.1421 22.5 15 22.5M22.5 15C22.5 10.8579 19.1421 7.5 15 7.5M22.5 15H26.25M15 22.5C10.8579 22.5 7.5 19.1421 7.5 15M15 22.5V26.25M7.5 15C7.5 10.8579 10.8579 7.5 15 7.5M7.5 15H3.75M15 7.5V3.75M23.125 6.875L20.3036 9.69699M9.69442 20.301L6.875 23.125M21.875 5.625L24.375 8.125M5.625 21.875L8.125 24.375M13.75 3.75H16.25M13.75 26.25H16.25M6.875 6.875L9.375 9.375M20.3114 20.2952L22.5 22.5M8.125 5.625L5.625 8.125M24.375 21.875L21.875 24.375M26.25 13.75V16.25M3.75 13.75V16.25M17.5 17.5H17.5125M13.125 14.375H13.1375M14.375 14.375C14.375 15.0654 13.8154 15.625 13.125 15.625C12.4346 15.625 11.875 15.0654 11.875 14.375C11.875 13.6846 12.4346 13.125 13.125 13.125C13.8154 13.125 14.375 13.6846 14.375 14.375Z" stroke="black" stroke-width="2" stroke-linecap="round" stroke-linejoin="round"/>
</svg>
